<svg width="284" height="129" viewBox="0 0 284 129" fill="none" xmlns="http://www.w3.org/2000/svg">
<path d="M185 24.2947C198.6 -19.7053 92.3333 5.96134 37.5 24.2947C13.1 45.4947 2.33333 63.4613 0 69.7947C16.3333 62.7947 64.5 46.5947 126.5 37.7947C188.5 28.9947 93 94.4613 37.5 128.295C81 111.961 171.4 68.2947 185 24.2947Z" fill="url(#paint0_linear_601_20)"/>
<path d="M68.66 75.316C68.66 72.7933 68.1613 70.7693 67.164 69.244C66.196 67.6893 64.8907 66.56 63.248 65.856C61.6347 65.1227 59.8307 64.756 57.836 64.756C56.9267 64.756 56.12 64.7853 55.416 64.844C54.712 64.9027 54.0667 64.9907 53.48 65.108V86.052C54.184 86.228 54.932 86.3453 55.724 86.404C56.5453 86.4627 57.3813 86.492 58.232 86.492C61.664 86.492 64.26 85.5533 66.02 83.676C67.78 81.7693 68.66 78.9827 68.66 75.316ZM72.312 75.316C72.312 78.5133 71.7253 81.168 70.552 83.28C69.408 85.3627 67.78 86.9173 65.668 87.944C63.5853 88.9707 61.1213 89.484 58.276 89.484C57.3667 89.484 56.3107 89.44 55.108 89.352C53.9347 89.2933 52.82 89.1027 51.764 88.78C50.532 88.3987 49.916 87.724 49.916 86.756V64.14C49.916 63.6707 50.0333 63.3187 50.268 63.084C50.532 62.82 50.8987 62.6147 51.368 62.468C52.2773 62.1747 53.304 61.984 54.448 61.896C55.592 61.808 56.736 61.764 57.88 61.764C60.7547 61.764 63.2627 62.2773 65.404 63.304C67.5747 64.3013 69.2613 65.7973 70.464 67.792C71.696 69.7867 72.312 72.2947 72.312 75.316ZM96.9651 78.836C96.9651 81.0067 96.5544 82.8987 95.7331 84.512C94.9117 86.1253 93.7531 87.372 92.2571 88.252C90.7611 89.132 89.0011 89.572 86.9771 89.572C84.9531 89.572 83.1784 89.132 81.6531 88.252C80.1571 87.372 78.9984 86.1253 78.1771 84.512C77.3557 82.8987 76.9451 81.0067 76.9451 78.836C76.9451 76.636 77.3557 74.744 78.1771 73.16C79.0277 71.5467 80.2011 70.3 81.6971 69.42C83.2224 68.54 84.9824 68.1 86.9771 68.1C88.9717 68.1 90.7171 68.54 92.2131 69.42C93.7091 70.3 94.8677 71.5467 95.6891 73.16C96.5397 74.744 96.9651 76.636 96.9651 78.836ZM86.9771 71.004C85.0117 71.004 83.4424 71.708 82.2691 73.116C81.1251 74.4947 80.5531 76.4013 80.5531 78.836C80.5531 81.3 81.1104 83.2213 82.2251 84.6C83.3691 85.9787 84.9531 86.668 86.9771 86.668C88.9717 86.668 90.5264 85.9787 91.6411 84.6C92.7851 83.192 93.3571 81.2707 93.3571 78.836C93.3571 76.4013 92.7851 74.4947 91.6411 73.116C90.5264 71.708 88.9717 71.004 86.9771 71.004ZM105.929 72.456V79.408H102.409V72.72C102.409 72.0453 102.527 71.5173 102.761 71.136C103.025 70.7253 103.451 70.3293 104.037 69.948C104.8 69.4493 105.841 69.024 107.161 68.672C108.481 68.2907 109.948 68.1 111.561 68.1C113.908 68.1 115.081 68.6867 115.081 69.86C115.081 70.1533 115.037 70.432 114.949 70.696C114.861 70.9307 114.744 71.136 114.597 71.312C114.304 71.2533 113.923 71.1947 113.453 71.136C112.984 71.0773 112.515 71.048 112.045 71.048C110.696 71.048 109.508 71.1947 108.481 71.488C107.455 71.752 106.604 72.0747 105.929 72.456ZM102.409 77.384L105.929 77.912V88.912C105.783 88.9707 105.563 89.0293 105.269 89.088C104.976 89.176 104.653 89.22 104.301 89.22C103.685 89.22 103.216 89.1027 102.893 88.868C102.571 88.604 102.409 88.1933 102.409 87.636V77.384ZM118.902 62.248C118.902 61.632 119.122 61.1187 119.562 60.708C120.002 60.268 120.545 60.048 121.19 60.048C121.865 60.048 122.407 60.268 122.818 60.708C123.229 61.1187 123.434 61.632 123.434 62.248C123.434 62.864 123.229 63.392 122.818 63.832C122.407 64.2427 121.865 64.448 121.19 64.448C120.545 64.448 120.002 64.2427 119.562 63.832C119.122 63.392 118.902 62.864 118.902 62.248ZM119.43 77.384H122.95V88.912C122.803 88.9707 122.583 89.0293 122.29 89.088C121.997 89.176 121.674 89.22 121.322 89.22C120.706 89.22 120.237 89.1027 119.914 88.868C119.591 88.604 119.43 88.1933 119.43 87.636V77.384ZM122.95 79.1H119.43V68.76C119.577 68.7013 119.797 68.6427 120.09 68.584C120.413 68.496 120.75 68.452 121.102 68.452C121.718 68.452 122.173 68.584 122.466 68.848C122.789 69.0827 122.95 69.4933 122.95 70.08V79.1ZM137.083 86.712C138.315 86.712 139.327 86.5947 140.119 86.36C140.941 86.096 141.527 85.8467 141.879 85.612V79.232L136.423 79.804C134.898 79.9213 133.769 80.2587 133.035 80.816C132.302 81.3733 131.935 82.18 131.935 83.236C131.935 84.3213 132.361 85.172 133.211 85.788C134.091 86.404 135.382 86.712 137.083 86.712ZM137.039 68.1C139.591 68.1 141.615 68.672 143.111 69.816C144.607 70.96 145.355 72.764 145.355 75.228V85.656C145.355 86.3013 145.223 86.8 144.959 87.152C144.725 87.4747 144.358 87.7827 143.859 88.076C143.155 88.4573 142.217 88.8093 141.043 89.132C139.87 89.4547 138.55 89.616 137.083 89.616C134.326 89.616 132.185 89.0733 130.659 87.988C129.163 86.9027 128.415 85.3333 128.415 83.28C128.415 81.3733 129.046 79.9213 130.307 78.924C131.598 77.8973 133.373 77.2813 135.631 77.076L141.879 76.46V75.228C141.879 73.7613 141.439 72.6907 140.559 72.016C139.679 71.3413 138.491 71.004 136.995 71.004C135.793 71.004 134.634 71.18 133.519 71.532C132.434 71.884 131.466 72.28 130.615 72.72C130.381 72.5147 130.161 72.28 129.955 72.016C129.779 71.7227 129.691 71.4293 129.691 71.136C129.691 70.3733 130.117 69.7867 130.967 69.376C131.759 68.9653 132.669 68.6573 133.695 68.452C134.751 68.2173 135.866 68.1 137.039 68.1ZM169.38 75.58V80.068H165.86V75.756C165.86 74.1133 165.391 72.9107 164.452 72.148C163.543 71.3853 162.311 71.004 160.756 71.004C159.583 71.004 158.542 71.1507 157.632 71.444C156.723 71.7373 155.946 72.0747 155.3 72.456V80.068H151.78V72.632C151.78 72.016 151.898 71.5173 152.132 71.136C152.396 70.7253 152.836 70.3293 153.452 69.948C154.215 69.508 155.227 69.0973 156.488 68.716C157.75 68.3053 159.172 68.1 160.756 68.1C163.426 68.1 165.523 68.716 167.048 69.948C168.603 71.1507 169.38 73.028 169.38 75.58ZM151.78 77.648H155.3V88.912C155.154 88.9707 154.934 89.0293 154.64 89.088C154.347 89.176 154.024 89.22 153.672 89.22C153.056 89.22 152.587 89.1027 152.264 88.868C151.942 88.604 151.78 88.1933 151.78 87.636V77.648ZM165.86 77.648H169.38V88.912C169.234 88.9707 168.999 89.0293 168.676 89.088C168.383 89.176 168.075 89.22 167.752 89.22C167.107 89.22 166.623 89.1027 166.3 88.868C166.007 88.604 165.86 88.1933 165.86 87.636V77.648ZM192.788 86.58C194.754 86.58 196.235 86.14 197.232 85.26C198.259 84.3507 198.772 83.192 198.772 81.784C198.772 80.5813 198.376 79.584 197.584 78.792C196.822 78 195.604 77.3693 193.932 76.9L190.104 75.756C188.872 75.3747 187.802 74.8907 186.892 74.304C185.983 73.688 185.279 72.94 184.78 72.06C184.311 71.1507 184.076 70.0947 184.076 68.892C184.076 66.6333 184.898 64.8733 186.54 63.612C188.183 62.3213 190.368 61.676 193.096 61.676C194.68 61.676 196.088 61.852 197.32 62.204C198.582 62.5267 199.564 62.952 200.268 63.48C201.002 64.008 201.368 64.5653 201.368 65.152C201.368 65.5333 201.266 65.8853 201.06 66.208C200.855 66.5013 200.591 66.736 200.268 66.912C199.535 66.3253 198.538 65.812 197.276 65.372C196.044 64.932 194.695 64.712 193.228 64.712C191.527 64.712 190.178 65.0933 189.18 65.856C188.183 66.5893 187.684 67.6013 187.684 68.892C187.684 69.9187 188.036 70.7547 188.74 71.4C189.474 72.0453 190.647 72.6027 192.26 73.072L194.944 73.864C197.262 74.5093 199.08 75.448 200.4 76.68C201.75 77.912 202.424 79.6133 202.424 81.784C202.424 84.1013 201.574 85.9787 199.872 87.416C198.2 88.8533 195.839 89.572 192.788 89.572C190.999 89.572 189.43 89.3813 188.08 89C186.76 88.5893 185.719 88.0907 184.956 87.504C184.223 86.888 183.856 86.2867 183.856 85.7C183.856 85.2013 184.003 84.7907 184.296 84.468C184.619 84.116 184.986 83.8667 185.396 83.72C186.071 84.3653 187.024 85.0107 188.256 85.656C189.488 86.272 190.999 86.58 192.788 86.58ZM207.856 77.384H211.376V83.456C211.376 84.6293 211.713 85.4653 212.388 85.964C213.062 86.4333 213.986 86.668 215.16 86.668C215.658 86.668 216.216 86.58 216.832 86.404C217.448 86.228 217.961 86.0227 218.372 85.788C218.548 85.964 218.709 86.184 218.856 86.448C219.002 86.712 219.076 87.02 219.076 87.372C219.076 88.0173 218.694 88.5453 217.932 88.956C217.169 89.3667 216.113 89.572 214.764 89.572C212.71 89.572 211.038 89.1173 209.748 88.208C208.486 87.2987 207.856 85.788 207.856 83.676V77.384ZM209.66 72.016V69.112H218.592C218.68 69.2293 218.768 69.42 218.856 69.684C218.944 69.948 218.988 70.2267 218.988 70.52C218.988 70.9893 218.87 71.356 218.636 71.62C218.401 71.884 218.078 72.016 217.668 72.016H209.66ZM211.376 78.704H207.856V62.776C208.002 62.7173 208.222 62.6587 208.516 62.6C208.838 62.512 209.176 62.468 209.528 62.468C210.144 62.468 210.598 62.6 210.892 62.864C211.214 63.0987 211.376 63.4947 211.376 64.052V78.704ZM242.414 78.836C242.414 81.0067 242.004 82.8987 241.182 84.512C240.361 86.1253 239.202 87.372 237.706 88.252C236.21 89.132 234.45 89.572 232.426 89.572C230.402 89.572 228.628 89.132 227.102 88.252C225.606 87.372 224.448 86.1253 223.626 84.512C222.805 82.8987 222.394 81.0067 222.394 78.836C222.394 76.636 222.805 74.744 223.626 73.16C224.477 71.5467 225.65 70.3 227.146 69.42C228.672 68.54 230.432 68.1 232.426 68.1C234.421 68.1 236.166 68.54 237.662 69.42C239.158 70.3 240.317 71.5467 241.138 73.16C241.989 74.744 242.414 76.636 242.414 78.836ZM232.426 71.004C230.461 71.004 228.892 71.708 227.718 73.116C226.574 74.4947 226.002 76.4013 226.002 78.836C226.002 81.3 226.56 83.2213 227.674 84.6C228.818 85.9787 230.402 86.668 232.426 86.668C234.421 86.668 235.976 85.9787 237.09 84.6C238.234 83.192 238.806 81.2707 238.806 78.836C238.806 76.4013 238.234 74.4947 237.09 73.116C235.976 71.708 234.421 71.004 232.426 71.004ZM251.379 72.456V79.408H247.859V72.72C247.859 72.0453 247.976 71.5173 248.211 71.136C248.475 70.7253 248.9 70.3293 249.487 69.948C250.249 69.4493 251.291 69.024 252.611 68.672C253.931 68.2907 255.397 68.1 257.011 68.1C259.357 68.1 260.531 68.6867 260.531 69.86C260.531 70.1533 260.487 70.432 260.399 70.696C260.311 70.9307 260.193 71.136 260.047 71.312C259.753 71.2533 259.372 71.1947 258.903 71.136C258.433 71.0773 257.964 71.048 257.495 71.048C256.145 71.048 254.957 71.1947 253.931 71.488C252.904 71.752 252.053 72.0747 251.379 72.456ZM247.859 77.384L251.379 77.912V88.912C251.232 88.9707 251.012 89.0293 250.719 89.088C250.425 89.176 250.103 89.22 249.751 89.22C249.135 89.22 248.665 89.1027 248.343 88.868C248.02 88.604 247.859 88.1933 247.859 87.636V77.384ZM265.506 81.08L265.33 78.308L278.618 76.504C278.5 74.8907 277.943 73.5707 276.946 72.544C275.948 71.488 274.57 70.96 272.81 70.96C270.991 70.96 269.48 71.62 268.278 72.94C267.104 74.2307 266.518 76.0933 266.518 78.528V79.496C266.723 81.8427 267.486 83.632 268.806 84.864C270.155 86.0667 271.988 86.668 274.306 86.668C275.538 86.668 276.652 86.4627 277.65 86.052C278.647 85.6413 279.439 85.2013 280.026 84.732C280.348 84.9373 280.598 85.1867 280.774 85.48C280.979 85.744 281.082 86.052 281.082 86.404C281.082 86.9613 280.759 87.4893 280.114 87.988C279.498 88.4573 278.662 88.8387 277.606 89.132C276.579 89.4253 275.42 89.572 274.13 89.572C271.871 89.572 269.906 89.1613 268.234 88.34C266.591 87.5187 265.315 86.3013 264.406 84.688C263.526 83.0453 263.086 81.0507 263.086 78.704C263.086 77.032 263.32 75.5507 263.79 74.26C264.288 72.94 264.963 71.8253 265.814 70.916C266.694 70.0067 267.735 69.3173 268.938 68.848C270.14 68.3493 271.446 68.1 272.854 68.1C274.643 68.1 276.212 68.4813 277.562 69.244C278.94 70.0067 280.011 71.0773 280.774 72.456C281.566 73.8053 281.962 75.36 281.962 77.12C281.962 77.7653 281.815 78.2347 281.522 78.528C281.228 78.792 280.818 78.9533 280.29 79.012L265.506 81.08Z" fill="white"/>
<path d="M67.164 69.244L66.3151 69.7726L66.321 69.782L66.327 69.7912L67.164 69.244ZM63.248 65.856L62.8342 66.7664L62.8441 66.7709L62.8541 66.7751L63.248 65.856ZM55.416 64.844L55.499 65.8405L55.499 65.8405L55.416 64.844ZM53.48 65.108L53.2839 64.1274L52.48 64.2882V65.108H53.48ZM53.48 86.052H52.48V86.8328L53.2375 87.0221L53.48 86.052ZM55.724 86.404L55.6501 87.4013L55.6528 87.4015L55.724 86.404ZM66.02 83.676L66.7496 84.36L66.7548 84.3543L66.02 83.676ZM70.552 83.28L69.6778 82.7944L69.6755 82.7986L70.552 83.28ZM65.668 87.944L65.2308 87.0446L65.2258 87.0471L65.668 87.944ZM55.108 89.352L55.181 88.3547L55.1695 88.3538L55.1579 88.3532L55.108 89.352ZM51.764 88.78L51.4683 89.7353L51.4718 89.7364L51.764 88.78ZM50.268 63.084L49.5609 62.3769L49.5609 62.3769L50.268 63.084ZM51.368 62.468L51.6663 63.4225L51.675 63.4197L51.368 62.468ZM54.448 61.896L54.3713 60.8989L54.3713 60.8989L54.448 61.896ZM65.404 63.304L64.9717 64.2057L64.9791 64.2093L64.9865 64.2127L65.404 63.304ZM70.464 67.792L69.6076 68.3084L69.6132 68.3175L70.464 67.792ZM69.66 75.316C69.66 72.671 69.1383 70.4361 68.001 68.6967L66.327 69.7912C67.1844 71.1025 67.66 72.9156 67.66 75.316H69.66ZM68.0129 68.7154C66.9396 66.9917 65.4775 65.7235 63.6419 64.9369L62.8541 66.7751C64.3038 67.3965 65.4524 68.387 66.3151 69.7726L68.0129 68.7154ZM63.6618 64.9456C61.9031 64.1462 59.9555 63.756 57.836 63.756V65.756C59.7059 65.756 61.3662 66.0991 62.8342 66.7664L63.6618 64.9456ZM57.836 63.756C56.9064 63.756 56.0711 63.7859 55.333 63.8475L55.499 65.8405C56.1689 65.7847 56.947 65.756 57.836 65.756V63.756ZM55.333 63.8475C54.5976 63.9087 53.9139 64.0014 53.2839 64.1274L53.6761 66.0886C54.2195 65.9799 54.8264 65.8966 55.499 65.8405L55.333 63.8475ZM52.48 65.108V86.052H54.48V65.108H52.48ZM53.2375 87.0221C54.0017 87.2132 54.8065 87.3388 55.6501 87.4013L55.7979 85.4067C55.0575 85.3519 54.3663 85.2428 53.7225 85.0819L53.2375 87.0221ZM55.6528 87.4015C56.4986 87.4619 57.3583 87.492 58.232 87.492V85.492C57.4043 85.492 56.5921 85.4635 55.7952 85.4065L55.6528 87.4015ZM58.232 87.492C61.8442 87.492 64.7434 86.4998 66.7495 84.3599L65.2905 82.9921C63.7766 84.6069 61.4838 85.492 58.232 85.492V87.492ZM66.7548 84.3543C68.7446 82.1986 69.66 79.1303 69.66 75.316H67.66C67.66 78.8351 66.8154 81.34 65.2852 82.9977L66.7548 84.3543ZM71.312 75.316C71.312 78.3965 70.7462 80.8713 69.6778 82.7944L71.4262 83.7656C72.7045 81.4647 73.312 78.6302 73.312 75.316H71.312ZM69.6755 82.7986C68.6299 84.7021 67.1543 86.1096 65.2308 87.0446L66.1052 88.8434C68.4057 87.7251 70.1861 86.0232 71.4285 83.7614L69.6755 82.7986ZM65.2258 87.0471C63.3082 87.9924 61.0019 88.484 58.276 88.484V90.484C61.2407 90.484 63.8624 89.949 66.1102 88.8409L65.2258 87.0471ZM58.276 88.484C57.3974 88.484 56.3667 88.4414 55.181 88.3547L55.035 90.3493C56.2547 90.4386 57.336 90.484 58.276 90.484V88.484ZM55.1579 88.3532C54.0616 88.2984 53.0287 88.1208 52.0562 87.8236L51.4718 89.7364C52.6113 90.0846 53.8078 90.2882 55.0581 90.3508L55.1579 88.3532ZM52.0597 87.8247C51.5473 87.6661 51.265 87.4764 51.1165 87.3137C50.9874 87.1723 50.916 87.0068 50.916 86.756H48.916C48.916 87.4732 49.1526 88.129 49.6395 88.6623C50.107 89.1742 50.7487 89.5126 51.4683 89.7353L52.0597 87.8247ZM50.916 86.756V64.14H48.916V86.756H50.916ZM50.916 64.14C50.916 63.8248 50.9941 63.7721 50.9751 63.7911L49.5609 62.3769C49.0725 62.8652 48.916 63.5165 48.916 64.14H50.916ZM50.9751 63.7911C51.0944 63.6718 51.3041 63.5357 51.6663 63.4225L51.0697 61.5135C50.4932 61.6937 49.9696 61.9682 49.5609 62.3769L50.9751 63.7911ZM51.675 63.4197C52.4965 63.1547 53.4439 62.9762 54.5247 62.8931L54.3713 60.8989C53.1641 60.9918 52.0582 61.1946 51.061 61.5163L51.675 63.4197ZM54.5247 62.8931C55.6433 62.807 56.7617 62.764 57.88 62.764V60.764C56.7103 60.764 55.5407 60.809 54.3713 60.8989L54.5247 62.8931ZM57.88 62.764C60.636 62.764 62.9907 63.2559 64.9717 64.2057L65.8363 62.4023C63.5346 61.2987 60.8733 60.764 57.88 60.764V62.764ZM64.9865 64.2127C66.9798 65.1285 68.5114 66.4902 69.6076 68.3083L71.3204 67.2757C70.0113 65.1045 68.1695 63.4742 65.8215 62.3953L64.9865 64.2127ZM69.6132 68.3175C70.7232 70.1147 71.312 72.4275 71.312 75.316H73.312C73.312 72.1618 72.6688 69.4586 71.3148 67.2665L69.6132 68.3175ZM95.7331 84.512L94.8419 84.0583L94.8419 84.0583L95.7331 84.512ZM81.6531 88.252L81.146 89.114L81.1533 89.1182L81.6531 88.252ZM78.1771 84.512L79.0682 84.0583L79.0682 84.0583L78.1771 84.512ZM78.1771 73.16L77.2925 72.6936L77.2893 72.6997L78.1771 73.16ZM81.6971 69.42L81.1973 68.5538L81.19 68.5581L81.6971 69.42ZM95.6891 73.16L94.7979 73.6137L94.8029 73.6235L94.8081 73.6331L95.6891 73.16ZM82.2691 73.116L81.5008 72.4758L81.4995 72.4774L82.2691 73.116ZM82.2251 84.6L81.4474 85.2288L81.4555 85.2386L82.2251 84.6ZM91.6411 84.6L90.8649 83.9694L90.8634 83.9713L91.6411 84.6ZM91.6411 73.116L90.857 73.7367L90.8642 73.7457L90.8715 73.7546L91.6411 73.116ZM95.9651 78.836C95.9651 80.8801 95.5788 82.6108 94.8419 84.0583L96.6242 84.9657C97.53 83.1865 97.9651 81.1333 97.9651 78.836H95.9651ZM94.8419 84.0583C94.1032 85.5094 93.0744 86.611 91.75 87.3901L92.7641 89.1139C94.4317 88.133 95.7203 86.7412 96.6242 84.9657L94.8419 84.0583ZM91.75 87.3901C90.4316 88.1656 88.8527 88.572 86.9771 88.572V90.572C89.1494 90.572 91.0905 90.0984 92.7641 89.1139L91.75 87.3901ZM86.9771 88.572C85.1019 88.572 83.5047 88.1658 82.1528 87.3858L81.1533 89.1182C82.8521 90.0982 84.8042 90.572 86.9771 90.572V88.572ZM82.1601 87.3901C80.8357 86.611 79.807 85.5094 79.0682 84.0583L77.2859 84.9657C78.1898 86.7412 79.4784 88.133 81.146 89.1139L82.1601 87.3901ZM79.0682 84.0583C78.3313 82.6108 77.9451 80.8801 77.9451 78.836H75.9451C75.9451 81.1333 76.3801 83.1865 77.2859 84.9657L79.0682 84.0583ZM77.9451 78.836C77.9451 76.7595 78.3325 75.0327 79.0648 73.6203L77.2893 72.6997C76.379 74.4553 75.9451 76.5125 75.9451 78.836H77.9451ZM79.0616 73.6264C79.8302 72.1687 80.8765 71.0628 82.2041 70.2819L81.19 68.5581C79.5256 69.5372 78.2252 70.9246 77.2925 72.6936L79.0616 73.6264ZM82.1968 70.2862C83.5509 69.505 85.1341 69.1 86.9771 69.1V67.1C84.8307 67.1 82.8939 67.575 81.1973 68.5538L82.1968 70.2862ZM86.9771 69.1C88.8205 69.1 90.3855 69.5051 91.706 70.2819L92.7201 68.5581C91.0487 67.5749 89.123 67.1 86.9771 67.1V69.1ZM91.706 70.2819C93.0304 71.061 94.0592 72.1626 94.7979 73.6137L96.5802 72.7063C95.6763 70.9308 94.3877 69.539 92.7201 68.5581L91.706 70.2819ZM94.8081 73.6331C95.565 75.0426 95.9651 76.7646 95.9651 78.836H97.9651C97.9651 76.5074 97.5145 74.4454 96.5701 72.6869L94.8081 73.6331ZM86.9771 70.004C84.7394 70.004 82.8793 70.8217 81.5008 72.4758L83.0373 73.7562C84.0055 72.5943 85.284 72.004 86.9771 72.004V70.004ZM81.4995 72.4774C80.1607 74.0908 79.5531 76.2518 79.5531 78.836H81.5531C81.5531 76.5509 82.0894 74.8985 83.0386 73.7546L81.4995 72.4774ZM79.5531 78.836C79.5531 81.4408 80.1418 83.6139 81.4474 85.2287L83.0027 83.9713C82.0789 82.8287 81.5531 81.1592 81.5531 78.836H79.5531ZM81.4555 85.2386C82.8156 86.8776 84.699 87.668 86.9771 87.668V85.668C85.2072 85.668 83.9226 85.0797 82.9946 83.9614L81.4555 85.2386ZM86.9771 87.668C89.231 87.668 91.0888 86.8735 92.4187 85.2287L90.8634 83.9713C89.964 85.0838 88.7125 85.668 86.9771 85.668V87.668ZM92.4172 85.2306C93.7488 83.5916 94.3571 81.4217 94.3571 78.836H92.3571C92.3571 81.1196 91.8213 82.7924 90.8649 83.9694L92.4172 85.2306ZM94.3571 78.836C94.3571 76.2518 93.7494 74.0908 92.4106 72.4774L90.8715 73.7546C91.8207 74.8985 92.3571 76.5509 92.3571 78.836H94.3571ZM92.4251 72.4953C91.0981 70.819 89.2387 70.004 86.9771 70.004V72.004C88.7047 72.004 89.9547 72.597 90.857 73.7367L92.4251 72.4953ZM105.929 72.456L105.437 71.5854L104.929 71.8725V72.456H105.929ZM105.929 79.408V80.408H106.929V79.408H105.929ZM102.409 79.408H101.409V80.408H102.409V79.408ZM102.761 71.136L101.92 70.5952L101.915 70.6035L101.91 70.6119L102.761 71.136ZM104.037 69.948L104.582 70.7864L104.585 70.785L104.037 69.948ZM107.161 68.672L107.419 69.6382L107.429 69.6356L107.439 69.6327L107.161 68.672ZM114.949 70.696L115.886 71.0471L115.892 71.0298L115.898 71.0122L114.949 70.696ZM114.597 71.312L114.401 72.2926L114.985 72.4093L115.366 71.9522L114.597 71.312ZM108.481 71.488L108.73 72.4565L108.743 72.4532L108.756 72.4495L108.481 71.488ZM102.409 77.384L102.558 76.3951L101.409 76.2228V77.384H102.409ZM105.929 77.912H106.929V77.0508L106.078 76.9231L105.929 77.912ZM105.929 88.912L106.301 89.8405L106.929 89.589V88.912H105.929ZM105.269 89.088L105.073 88.1074L105.027 88.1166L104.982 88.1302L105.269 89.088ZM102.893 88.868L102.26 89.642L102.282 89.66L102.305 89.6767L102.893 88.868ZM104.929 72.456V79.408H106.929V72.456H104.929ZM105.929 78.408H102.409V80.408H105.929V78.408ZM103.409 79.408V72.72H101.409V79.408H103.409ZM103.409 72.72C103.409 72.1432 103.513 71.8232 103.613 71.6601L101.91 70.6119C101.541 71.2115 101.409 71.9474 101.409 72.72H103.409ZM103.603 71.6768C103.764 71.4251 104.067 71.1216 104.582 70.7864L103.492 69.1096C102.835 69.5371 102.286 70.0256 101.92 70.5952L103.603 71.6768ZM104.585 70.785C105.226 70.3658 106.156 69.9751 107.419 69.6382L106.904 67.7058C105.527 68.0729 104.374 68.5328 103.49 69.111L104.585 70.785ZM107.439 69.6327C108.655 69.2815 110.026 69.1 111.561 69.1V67.1C109.87 67.1 108.308 67.2998 106.884 67.7113L107.439 69.6327ZM111.561 69.1C112.684 69.1 113.376 69.2456 113.754 69.4344C113.929 69.5218 114 69.6004 114.029 69.6447C114.055 69.6827 114.081 69.7416 114.081 69.86H116.081C116.081 69.3917 115.961 68.9373 115.693 68.5353C115.43 68.1396 115.061 67.8516 114.649 67.6456C113.853 67.2478 112.786 67.1 111.561 67.1V69.1ZM114.081 69.86C114.081 70.0517 114.053 70.2231 114.001 70.3798L115.898 71.0122C116.022 70.6409 116.081 70.255 116.081 69.86H114.081ZM114.013 70.3449C113.961 70.4843 113.898 70.5898 113.829 70.6718L115.366 71.9522C115.591 71.6822 115.762 71.377 115.886 71.0471L114.013 70.3449ZM114.793 70.3314C114.467 70.2661 114.059 70.2039 113.577 70.1437L113.329 72.1283C113.787 72.1854 114.141 72.2406 114.401 72.2926L114.793 70.3314ZM113.577 70.1437C113.067 70.08 112.556 70.048 112.045 70.048V72.048C112.473 72.048 112.901 72.0747 113.329 72.1283L113.577 70.1437ZM112.045 70.048C110.626 70.048 109.343 70.2019 108.207 70.5265L108.756 72.4495C109.674 72.1874 110.766 72.048 112.045 72.048V70.048ZM108.232 70.5195C107.15 70.7979 106.211 71.1484 105.437 71.5854L106.421 73.3266C106.998 73.0009 107.76 72.7061 108.73 72.4565L108.232 70.5195ZM102.261 78.3729L105.781 78.9009L106.078 76.9231L102.558 76.3951L102.261 78.3729ZM104.929 77.912V88.912H106.929V77.912H104.929ZM105.558 87.9835C105.498 88.0076 105.35 88.0521 105.073 88.1074L105.465 90.0686C105.776 90.0065 106.068 89.9337 106.301 89.8405L105.558 87.9835ZM104.982 88.1302C104.795 88.1864 104.57 88.22 104.301 88.22V90.22C104.736 90.22 105.157 90.1656 105.557 90.0458L104.982 88.1302ZM104.301 88.22C103.789 88.22 103.563 88.1185 103.482 88.0593L102.305 89.6767C102.869 90.0868 103.582 90.22 104.301 90.22V88.22ZM103.527 88.094C103.508 88.0791 103.409 88.0012 103.409 87.636H101.409C101.409 88.3855 101.633 89.1289 102.26 89.642L103.527 88.094ZM103.409 87.636V77.384H101.409V87.636H103.409ZM119.562 60.708L120.244 61.4391L120.257 61.4273L120.269 61.4151L119.562 60.708ZM122.818 60.708L122.087 61.3903L122.099 61.4029L122.111 61.4151L122.818 60.708ZM122.818 63.832L123.525 64.5391L123.537 64.5269L123.549 64.5143L122.818 63.832ZM119.562 63.832L118.855 64.5391L118.867 64.5513L118.88 64.5631L119.562 63.832ZM119.43 77.384V76.384H118.43V77.384H119.43ZM122.95 77.384H123.95V76.384H122.95V77.384ZM122.95 88.912L123.322 89.8405L123.95 89.589V88.912H122.95ZM122.29 89.088L122.094 88.1074L122.048 88.1166L122.003 88.1302L122.29 89.088ZM119.914 88.868L119.281 89.642L119.303 89.66L119.326 89.6767L119.914 88.868ZM122.95 79.1V80.1H123.95V79.1H122.95ZM119.43 79.1H118.43V80.1H119.43V79.1ZM119.43 68.76L119.059 67.8315L118.43 68.083V68.76H119.43ZM120.09 68.584L120.286 69.5646L120.32 69.5578L120.353 69.5488L120.09 68.584ZM122.466 68.848L121.797 69.5913L121.836 69.6261L121.878 69.6567L122.466 68.848ZM119.902 62.248C119.902 61.9018 120.012 61.6556 120.244 61.4391L118.88 59.9769C118.232 60.5817 117.902 61.3622 117.902 62.248H119.902ZM120.269 61.4151C120.514 61.1703 120.799 61.048 121.19 61.048V59.048C120.291 59.048 119.49 59.3657 118.855 60.0009L120.269 61.4151ZM121.19 61.048C121.625 61.048 121.889 61.1785 122.087 61.3903L123.549 60.0257C122.926 59.3575 122.105 59.048 121.19 59.048V61.048ZM122.111 61.4151C122.322 61.626 122.434 61.8794 122.434 62.248H124.434C124.434 61.3846 124.136 60.6114 123.525 60.0009L122.111 61.4151ZM122.434 62.248C122.434 62.6173 122.32 62.8996 122.087 63.1497L123.549 64.5143C124.137 63.8844 124.434 63.1107 124.434 62.248H122.434ZM122.111 63.1249C121.918 63.3176 121.646 63.448 121.19 63.448V65.448C122.084 65.448 122.897 65.1677 123.525 64.5391L122.111 63.1249ZM121.19 63.448C120.778 63.448 120.485 63.3256 120.244 63.1009L118.88 64.5631C119.519 65.1597 120.312 65.448 121.19 65.448V63.448ZM120.269 63.1249C120.015 62.8703 119.902 62.5958 119.902 62.248H117.902C117.902 63.1322 118.23 63.9137 118.855 64.5391L120.269 63.1249ZM119.43 78.384H122.95V76.384H119.43V78.384ZM121.95 77.384V88.912H123.95V77.384H121.95ZM122.579 87.9835C122.519 88.0076 122.37 88.0521 122.094 88.1074L122.486 90.0686C122.797 90.0065 123.088 89.9337 123.322 89.8405L122.579 87.9835ZM122.003 88.1302C121.815 88.1864 121.591 88.22 121.322 88.22V90.22C121.757 90.22 122.178 90.1656 122.578 90.0458L122.003 88.1302ZM121.322 88.22C120.81 88.22 120.584 88.1185 120.502 88.0593L119.326 89.6767C119.89 90.0868 120.602 90.22 121.322 90.22V88.22ZM120.547 88.094C120.529 88.0791 120.43 88.0012 120.43 87.636H118.43C118.43 88.3855 118.654 89.1289 119.281 89.642L120.547 88.094ZM120.43 87.636V77.384H118.43V87.636H120.43ZM122.95 78.1H119.43V80.1H122.95V78.1ZM120.43 79.1V68.76H118.43V79.1H120.43ZM119.802 69.6885C119.862 69.6644 120.01 69.6199 120.286 69.5646L119.894 67.6034C119.584 67.6655 119.292 67.7383 119.059 67.8315L119.802 69.6885ZM120.353 69.5488C120.586 69.4853 120.834 69.452 121.102 69.452V67.452C120.666 67.452 120.24 67.5067 119.827 67.6192L120.353 69.5488ZM121.102 69.452C121.604 69.452 121.767 69.5638 121.797 69.5913L123.135 68.1047C122.579 67.6042 121.833 67.452 121.102 67.452V69.452ZM121.878 69.6567C121.878 69.6568 121.878 69.6565 121.877 69.656C121.877 69.6554 121.877 69.6556 121.878 69.657C121.88 69.6594 121.888 69.6708 121.898 69.6977C121.921 69.7551 121.95 69.8729 121.95 70.08H123.95C123.95 69.3315 123.741 68.539 123.054 68.0393L121.878 69.6567ZM121.95 70.08V79.1H123.95V70.08H121.95ZM140.119 86.36L140.404 87.3188L140.415 87.3155L140.425 87.312L140.119 86.36ZM141.879 85.612L142.434 86.444L142.879 86.1472V85.612H141.879ZM141.879 79.232H142.879V78.1217L141.775 78.2374L141.879 79.232ZM136.423 79.804L136.5 80.8011L136.514 80.8L136.528 80.7985L136.423 79.804ZM133.035 80.816L133.641 81.6122L133.641 81.6122L133.035 80.816ZM133.211 85.788L132.625 86.5979L132.631 86.6026L132.638 86.6072L133.211 85.788ZM143.111 69.816L142.504 70.6104L142.504 70.6104L143.111 69.816ZM144.959 87.152L144.159 86.552L144.155 86.5579L144.151 86.5638L144.959 87.152ZM143.859 88.076L144.336 88.9553L144.351 88.9469L144.366 88.9379L143.859 88.076ZM130.659 87.988L130.072 88.7975L130.08 88.8028L130.659 87.988ZM130.307 78.924L130.928 79.7084L130.93 79.7066L130.307 78.924ZM135.631 77.076L135.722 78.0719L135.73 78.0712L135.631 77.076ZM141.879 76.46L141.978 77.4552L142.879 77.3663V76.46H141.879ZM133.519 71.532L133.218 70.5784L133.211 70.5808L133.519 71.532ZM130.615 72.72L129.957 73.4726L130.47 73.9212L131.075 73.6082L130.615 72.72ZM129.955 72.016L129.098 72.5305L129.129 72.5823L129.166 72.6299L129.955 72.016ZM130.967 69.376L131.402 70.2766L131.415 70.2703L131.428 70.2638L130.967 69.376ZM133.695 68.452L133.892 69.4326L133.902 69.4305L133.912 69.4282L133.695 68.452ZM137.083 87.712C138.369 87.712 139.486 87.5907 140.404 87.3188L139.835 85.4012C139.169 85.5987 138.262 85.712 137.083 85.712V87.712ZM140.425 87.312C141.263 87.0427 141.961 86.7595 142.434 86.444L141.325 84.7799C141.094 84.9338 140.618 85.1493 139.813 85.408L140.425 87.312ZM142.879 85.612V79.232H140.879V85.612H142.879ZM141.775 78.2374L136.319 78.8095L136.528 80.7985L141.984 80.2265L141.775 78.2374ZM136.347 78.8069C134.743 78.9303 133.388 79.2923 132.43 80.0198L133.641 81.6122C134.15 81.225 135.053 80.9124 136.5 80.8011L136.347 78.8069ZM132.43 80.0198C131.409 80.7957 130.935 81.9195 130.935 83.236H132.935C132.935 82.4404 133.195 81.951 133.641 81.6122L132.43 80.0198ZM130.935 83.236C130.935 84.6293 131.504 85.7866 132.625 86.5979L133.798 84.9781C133.217 84.5574 132.935 84.0133 132.935 83.236H130.935ZM132.638 86.6072C133.758 87.3914 135.287 87.712 137.083 87.712V85.712C135.477 85.712 134.425 85.4166 133.785 84.9688L132.638 86.6072ZM137.039 69.1C139.449 69.1 141.235 69.64 142.504 70.6104L143.719 69.0216C141.996 67.704 139.734 67.1 137.039 67.1V69.1ZM142.504 70.6104C143.68 71.5096 144.355 72.971 144.355 75.228H146.355C146.355 72.557 145.535 70.4104 143.719 69.0216L142.504 70.6104ZM144.355 75.228V85.656H146.355V75.228H144.355ZM144.355 85.656C144.355 86.1818 144.246 86.4372 144.159 86.552L145.759 87.752C146.201 87.1628 146.355 86.4209 146.355 85.656H144.355ZM144.151 86.5638C144.025 86.7373 143.782 86.9615 143.352 87.2141L144.366 88.9379C144.934 88.6038 145.425 88.212 145.768 87.7402L144.151 86.5638ZM143.383 87.1967C142.771 87.5283 141.912 87.856 140.778 88.1678L141.309 90.0962C142.522 89.7626 143.54 89.3864 144.336 88.9553L143.383 87.1967ZM140.778 88.1678C139.707 88.4624 138.478 88.616 137.083 88.616V90.616C138.622 90.616 140.033 90.4469 141.309 90.0962L140.778 88.1678ZM137.083 88.616C134.44 88.616 132.532 88.0933 131.239 87.1732L130.08 88.8028C131.837 90.0534 134.212 90.616 137.083 90.616V88.616ZM131.247 87.1786C130.042 86.3043 129.415 85.0541 129.415 83.28H127.415C127.415 85.6125 128.285 87.501 130.072 88.7974L131.247 87.1786ZM129.415 83.28C129.415 81.6156 129.952 80.4799 130.928 79.7084L129.687 78.1396C128.14 79.3627 127.415 81.131 127.415 83.28H129.415ZM130.93 79.7066C132.021 78.8391 133.587 78.266 135.722 78.0719L135.541 76.0801C133.158 76.2967 131.176 76.9556 129.685 78.1414L130.93 79.7066ZM135.73 78.0712L141.978 77.4552L141.781 75.4648L135.533 76.0808L135.73 78.0712ZM142.879 76.46V75.228H140.879V76.46H142.879ZM142.879 75.228C142.879 73.559 142.37 72.1439 141.168 71.2224L139.951 72.8096C140.509 73.2375 140.879 73.9636 140.879 75.228H142.879ZM141.168 71.2224C140.061 70.3739 138.635 70.004 136.995 70.004V72.004C138.348 72.004 139.298 72.3087 139.951 72.8096L141.168 71.2224ZM136.995 70.004C135.694 70.004 134.433 70.1948 133.218 70.5784L133.821 72.4856C134.835 72.1652 135.892 72.004 136.995 72.004V70.004ZM133.211 70.5808C132.083 70.9465 131.063 71.3625 130.156 71.8318L131.075 73.6082C131.869 73.1975 132.785 72.8215 133.828 72.4832L133.211 70.5808ZM131.274 71.9674C131.091 71.8069 130.914 71.6194 130.745 71.4021L129.166 72.6299C129.408 72.9406 129.671 73.2224 129.957 73.4726L131.274 71.9674ZM130.813 71.5015C130.714 71.3374 130.691 71.2198 130.691 71.136H128.691C128.691 71.6388 128.844 72.1079 129.098 72.5305L130.813 71.5015ZM130.691 71.136C130.691 70.9537 130.738 70.8243 130.82 70.711C130.911 70.5861 131.082 70.4311 131.402 70.2766L130.533 68.4754C130.002 68.7315 129.536 69.0753 129.201 69.537C128.858 70.0104 128.691 70.5556 128.691 71.136H130.691ZM131.428 70.2638C132.124 69.903 132.941 69.6226 133.892 69.4326L133.499 67.4714C132.396 67.692 131.395 68.0277 130.507 68.4882L131.428 70.2638ZM133.912 69.4282C134.891 69.2106 135.933 69.1 137.039 69.1V67.1C135.799 67.1 134.611 67.224 133.479 67.4758L133.912 69.4282ZM169.38 80.068V81.068H170.38V80.068H169.38ZM165.86 80.068H164.86V81.068H165.86V80.068ZM164.452 72.148L163.81 72.9142L163.816 72.9192L163.822 72.9241L164.452 72.148ZM155.3 72.456L154.792 71.5951L154.3 71.8854V72.456H155.3ZM155.3 80.068V81.068H156.3V80.068H155.3ZM151.78 80.068H150.78V81.068H151.78V80.068ZM152.132 71.136L151.291 70.5952L151.286 70.6035L151.281 70.6119L152.132 71.136ZM153.452 69.948L152.953 69.0818L152.939 69.0896L152.926 69.0977L153.452 69.948ZM156.488 68.716L156.778 69.6732L156.788 69.6701L156.798 69.6669L156.488 68.716ZM167.048 69.948L166.42 70.7259L166.428 70.7325L166.437 70.739L167.048 69.948ZM151.78 77.648V76.648H150.78V77.648H151.78ZM155.3 77.648H156.3V76.648H155.3V77.648ZM155.3 88.912L155.672 89.8405L156.3 89.589V88.912H155.3ZM154.64 89.088L154.444 88.1074L154.398 88.1166L154.353 88.1302L154.64 89.088ZM152.264 88.868L151.631 89.642L151.653 89.66L151.676 89.6767L152.264 88.868ZM165.86 77.648V76.648H164.86V77.648H165.86ZM169.38 77.648H170.38V76.648H169.38V77.648ZM169.38 88.912L169.752 89.8405L170.38 89.589V88.912H169.38ZM168.676 89.088L168.498 88.1041L168.443 88.1141L168.389 88.1302L168.676 89.088ZM166.3 88.868L165.632 89.6113L165.67 89.6461L165.712 89.6767L166.3 88.868ZM168.38 75.58V80.068H170.38V75.58H168.38ZM169.38 79.068H165.86V81.068H169.38V79.068ZM166.86 80.068V75.756H164.86V80.068H166.86ZM166.86 75.756C166.86 73.9268 166.332 72.3865 165.083 71.3719L163.822 72.9241C164.45 73.4348 164.86 74.2999 164.86 75.756H166.86ZM165.095 71.3818C163.956 70.4266 162.472 70.004 160.756 70.004V72.004C162.15 72.004 163.13 72.344 163.81 72.9142L165.095 71.3818ZM160.756 70.004C159.502 70.004 158.354 70.1606 157.325 70.4923L157.939 72.3957C158.73 72.1407 159.665 72.004 160.756 72.004V70.004ZM157.325 70.4923C156.364 70.8025 155.515 71.1675 154.792 71.5951L155.809 73.3169C156.376 72.9818 157.082 72.6722 157.939 72.3957L157.325 70.4923ZM154.3 72.456V80.068H156.3V72.456H154.3ZM155.3 79.068H151.78V81.068H155.3V79.068ZM152.78 80.068V72.632H150.78V80.068H152.78ZM152.78 72.632C152.78 72.1342 152.876 71.8352 152.984 71.6601L151.281 70.6119C150.919 71.1995 150.78 71.8978 150.78 72.632H152.78ZM152.974 71.6768C153.128 71.4372 153.433 71.136 153.979 70.7983L152.926 69.0977C152.24 69.5227 151.665 70.0135 151.291 70.5952L152.974 71.6768ZM153.952 70.8142C154.624 70.4263 155.557 70.0422 156.778 69.6732L156.199 67.7588C154.897 68.1525 153.806 68.5897 152.953 69.0818L153.952 70.8142ZM156.798 69.6669C157.942 69.2944 159.258 69.1 160.756 69.1V67.1C159.087 67.1 157.557 67.3163 156.179 67.7651L156.798 69.6669ZM160.756 69.1C163.279 69.1 165.128 69.6819 166.42 70.7259L167.677 69.1701C165.919 67.7501 163.572 67.1 160.756 67.1V69.1ZM166.437 70.739C167.677 71.6982 168.38 73.237 168.38 75.58H170.38C170.38 72.819 169.53 70.6031 167.66 69.157L166.437 70.739ZM151.78 78.648H155.3V76.648H151.78V78.648ZM154.3 77.648V88.912H156.3V77.648H154.3ZM154.929 87.9835C154.869 88.0076 154.721 88.0521 154.444 88.1074L154.837 90.0686C155.147 90.0065 155.439 89.9337 155.672 89.8405L154.929 87.9835ZM154.353 88.1302C154.166 88.1864 153.941 88.22 153.672 88.22V90.22C154.108 90.22 154.529 90.1656 154.928 90.0458L154.353 88.1302ZM153.672 88.22C153.16 88.22 152.934 88.1185 152.853 88.0593L151.676 89.6767C152.24 90.0868 152.953 90.22 153.672 90.22V88.22ZM152.898 88.094C152.879 88.0791 152.78 88.0012 152.78 87.636H150.78C150.78 88.3855 151.004 89.1289 151.631 89.642L152.898 88.094ZM152.78 87.636V77.648H150.78V87.636H152.78ZM165.86 78.648H169.38V76.648H165.86V78.648ZM168.38 77.648V88.912H170.38V77.648H168.38ZM169.009 87.9835C168.961 88.0029 168.809 88.0475 168.498 88.1041L168.855 90.0719C169.189 90.0111 169.507 89.9385 169.752 89.8405L169.009 87.9835ZM168.389 88.1302C168.194 88.1887 167.983 88.22 167.752 88.22V90.22C168.167 90.22 168.572 90.1633 168.964 90.0458L168.389 88.1302ZM167.752 88.22C167.199 88.22 166.964 88.114 166.889 88.0593L165.712 89.6767C166.282 90.0914 167.016 90.22 167.752 90.22V88.22ZM166.969 88.1247C166.962 88.1181 166.86 88.0301 166.86 87.636H164.86C164.86 88.3566 165.052 89.0899 165.632 89.6113L166.969 88.1247ZM166.86 87.636V77.648H164.86V87.636H166.86ZM197.232 85.26L197.894 86.0098L197.896 86.0086L197.232 85.26ZM197.584 78.792L196.864 79.4856L196.871 79.4924L196.877 79.4991L197.584 78.792ZM193.932 76.9L193.646 77.8581L193.654 77.8605L193.662 77.8628L193.932 76.9ZM190.104 75.756L189.809 76.7113L189.818 76.7141L190.104 75.756ZM186.892 74.304L186.332 75.1319L186.341 75.1382L186.35 75.1443L186.892 74.304ZM184.78 72.06L183.892 72.5186L183.901 72.536L183.91 72.553L184.78 72.06ZM186.54 63.612L187.15 64.4052L187.158 64.3983L186.54 63.612ZM197.32 62.204L197.046 63.1655L197.059 63.1693L197.073 63.1728L197.32 62.204ZM200.268 63.48L199.668 64.28L199.676 64.2858L199.684 64.2915L200.268 63.48ZM201.06 66.208L201.88 66.7815L201.892 66.7634L201.904 66.7449L201.06 66.208ZM200.268 66.912L199.644 67.6929L200.163 68.1085L200.747 67.7899L200.268 66.912ZM197.276 65.372L196.94 66.3138L196.947 66.3162L197.276 65.372ZM189.18 65.856L189.773 66.6617L189.78 66.6561L189.788 66.6504L189.18 65.856ZM188.74 71.4L188.065 72.1372L188.072 72.144L188.08 72.1507L188.74 71.4ZM192.26 73.072L192.543 72.1129L192.54 72.1118L192.26 73.072ZM194.944 73.864L194.661 74.8231L194.669 74.8253L194.676 74.8273L194.944 73.864ZM200.4 76.68L199.718 77.4111L199.726 77.4185L200.4 76.68ZM199.872 87.416L199.227 86.6521L199.221 86.6577L199.872 87.416ZM188.08 89L187.783 89.9549L187.796 89.9587L187.809 89.9623L188.08 89ZM184.956 87.504L184.313 88.2697L184.33 88.2835L184.347 88.2966L184.956 87.504ZM184.296 84.468L183.559 83.7923L183.557 83.7953L184.296 84.468ZM185.396 83.72L186.088 82.9974L185.642 82.5706L185.06 82.7783L185.396 83.72ZM188.256 85.656L187.792 86.5418L187.801 86.5462L187.809 86.5504L188.256 85.656ZM192.788 87.58C194.884 87.58 196.644 87.113 197.894 86.0098L196.571 84.5102C195.826 85.167 194.624 85.58 192.788 85.58V87.58ZM197.896 86.0086C199.143 84.9038 199.772 83.4696 199.772 81.784H197.772C197.772 82.9144 197.375 83.7976 196.569 84.5114L197.896 86.0086ZM199.772 81.784C199.772 80.3378 199.286 79.0792 198.292 78.0849L196.877 79.4991C197.467 80.0888 197.772 80.8249 197.772 81.784H199.772ZM198.305 78.0984C197.367 77.1244 195.956 76.4293 194.203 75.9372L193.662 77.8628C195.253 78.3093 196.277 78.8756 196.864 79.4856L198.305 78.0984ZM194.219 75.9419L190.391 74.7979L189.818 76.7141L193.646 77.8581L194.219 75.9419ZM190.4 74.8007C189.239 74.4413 188.254 73.9926 187.435 73.4637L186.35 75.1443C187.349 75.7887 188.506 76.308 189.809 76.7113L190.4 74.8007ZM187.453 73.4761C186.66 72.9389 186.067 72.3018 185.65 71.567L183.91 72.553C184.491 73.5782 185.306 74.4371 186.332 75.1319L187.453 73.4761ZM185.669 71.6014C185.285 70.8567 185.076 69.963 185.076 68.892H183.076C183.076 70.2263 183.338 71.4446 183.892 72.5186L185.669 71.6014ZM185.076 68.892C185.076 66.9117 185.778 65.4583 187.149 64.4051L185.931 62.8188C184.018 64.2884 183.076 66.355 183.076 68.892H185.076ZM187.158 64.3983C188.577 63.2834 190.524 62.676 193.096 62.676V60.676C190.213 60.676 187.789 61.3593 185.923 62.8257L187.158 64.3983ZM193.096 62.676C194.609 62.676 195.921 62.8442 197.046 63.1655L197.595 61.2425C196.256 60.8598 194.752 60.676 193.096 60.676V62.676ZM197.073 63.1728C198.262 63.4771 199.107 63.8592 199.668 64.28L200.868 62.68C200.022 62.0448 198.901 61.5762 197.568 61.2352L197.073 63.1728ZM199.684 64.2915C200.302 64.7365 200.368 65.032 200.368 65.152H202.368C202.368 64.0987 201.701 63.2795 200.853 62.6685L199.684 64.2915ZM200.368 65.152C200.368 65.3426 200.32 65.5084 200.217 65.6711L201.904 66.7449C202.211 66.2623 202.368 65.7241 202.368 65.152H200.368ZM200.241 65.6345C200.127 65.7981 199.981 65.9299 199.79 66.0341L200.747 67.7899C201.202 67.5421 201.584 67.2046 201.88 66.7815L200.241 65.6345ZM200.893 66.1311C200.043 65.4507 198.933 64.8907 197.606 64.4278L196.947 66.3162C198.143 66.7333 199.028 67.2 199.644 67.6929L200.893 66.1311ZM197.613 64.4303C196.261 63.9473 194.796 63.712 193.228 63.712V65.712C194.594 65.712 195.828 65.9167 196.94 66.3137L197.613 64.4303ZM193.228 63.712C191.385 63.712 189.797 64.1253 188.573 65.0616L189.788 66.6504C190.558 66.0614 191.67 65.712 193.228 65.712V63.712ZM188.588 65.0503C187.322 65.9814 186.684 67.2992 186.684 68.892H188.684C188.684 67.9035 189.044 67.1973 189.773 66.6617L188.588 65.0503ZM186.684 68.892C186.684 70.1754 187.137 71.287 188.065 72.1372L189.416 70.6628C188.936 70.2223 188.684 69.6619 188.684 68.892H186.684ZM188.08 72.1507C188.976 72.9391 190.314 73.5473 191.981 74.0322L192.54 72.1118C190.98 71.658 189.972 71.1515 189.401 70.6493L188.08 72.1507ZM191.977 74.0311L194.661 74.8231L195.227 72.9049L192.543 72.1129L191.977 74.0311ZM194.676 74.8273C196.888 75.4433 198.548 76.3189 199.718 77.4111L201.083 75.9489C199.613 74.5771 197.635 73.5753 195.213 72.9007L194.676 74.8273ZM199.726 77.4185C200.829 78.4254 201.424 79.8368 201.424 81.784H203.424C203.424 79.3899 202.671 77.3986 201.075 75.9415L199.726 77.4185ZM201.424 81.784C201.424 83.8206 200.693 85.4134 199.227 86.6521L200.518 88.1799C202.454 86.5439 203.424 84.3821 203.424 81.784H201.424ZM199.221 86.6577C197.789 87.8883 195.691 88.572 192.788 88.572V90.572C195.987 90.572 198.612 89.8184 200.524 88.1743L199.221 86.6577ZM192.788 88.572C191.067 88.572 189.593 88.3882 188.352 88.0377L187.809 89.9623C189.267 90.3744 190.931 90.572 192.788 90.572V88.572ZM188.378 88.0451C187.125 87.6556 186.204 87.2018 185.566 86.7114L184.347 88.2966C185.235 88.9795 186.396 89.5231 187.783 89.9549L188.378 88.0451ZM185.6 86.7383C184.952 86.1944 184.856 85.8472 184.856 85.7H182.856C182.856 86.7261 183.494 87.5816 184.313 88.2697L185.6 86.7383ZM184.856 85.7C184.856 85.4119 184.934 85.2528 185.036 85.1407L183.557 83.7953C183.072 84.3285 182.856 84.9908 182.856 85.7H184.856ZM185.034 85.1437C185.257 84.9001 185.49 84.7486 185.733 84.6617L185.06 82.7783C184.482 82.9847 183.981 83.3319 183.559 83.7923L185.034 85.1437ZM184.705 84.4426C185.472 85.1761 186.514 85.8721 187.792 86.5418L188.72 84.7702C187.535 84.1493 186.67 83.5546 186.088 82.9974L184.705 84.4426ZM187.809 86.5504C189.215 87.2534 190.889 87.58 192.788 87.58V85.58C191.11 85.58 189.762 85.2906 188.704 84.7616L187.809 86.5504ZM207.856 77.384V76.384H206.856V77.384H207.856ZM211.376 77.384H212.376V76.384H211.376V77.384ZM212.388 85.964L211.793 86.7682L211.805 86.7767L211.817 86.7849L212.388 85.964ZM216.832 86.404L216.557 85.4425L216.557 85.4425L216.832 86.404ZM218.372 85.788L219.079 85.0809L218.539 84.5408L217.876 84.9198L218.372 85.788ZM218.856 86.448L217.982 86.9336L217.982 86.9336L218.856 86.448ZM217.932 88.956L217.458 88.0755L217.458 88.0755L217.932 88.956ZM209.748 88.208L209.163 89.0192L209.172 89.0255L209.748 88.208ZM209.66 72.016H208.66V73.016H209.66V72.016ZM209.66 69.112V68.112H208.66V69.112H209.66ZM218.592 69.112L219.392 68.512L219.092 68.112H218.592V69.112ZM218.856 69.684L217.907 70.0002L217.907 70.0002L218.856 69.684ZM218.636 71.62L217.888 70.9556L217.888 70.9556L218.636 71.62ZM211.376 78.704V79.704H212.376V78.704H211.376ZM207.856 78.704H206.856V79.704H207.856V78.704ZM207.856 62.776L207.484 61.8475L206.856 62.099V62.776H207.856ZM208.516 62.6L208.712 63.5806L208.746 63.5738L208.779 63.5648L208.516 62.6ZM210.892 62.864L210.223 63.6073L210.261 63.6421L210.304 63.6727L210.892 62.864ZM207.856 78.384H211.376V76.384H207.856V78.384ZM210.376 77.384V83.456H212.376V77.384H210.376ZM210.376 83.456C210.376 84.8115 210.772 86.013 211.793 86.7682L212.982 85.1598C212.655 84.9177 212.376 84.4472 212.376 83.456H210.376ZM211.817 86.7849C212.717 87.411 213.866 87.668 215.16 87.668V85.668C214.107 85.668 213.408 85.4557 212.959 85.1431L211.817 86.7849ZM215.16 87.668C215.773 87.668 216.425 87.5602 217.106 87.3655L216.557 85.4425C216.006 85.5998 215.543 85.668 215.16 85.668V87.668ZM217.106 87.3655C217.774 87.1747 218.368 86.942 218.868 86.6562L217.876 84.9198C217.554 85.1033 217.121 85.2813 216.557 85.4425L217.106 87.3655ZM217.665 86.4951C217.763 86.5932 217.871 86.7342 217.982 86.9336L219.73 85.9624C219.547 85.6338 219.333 85.3348 219.079 85.0809L217.665 86.4951ZM217.982 86.9336C218.033 87.0262 218.076 87.1616 218.076 87.372H220.076C220.076 86.8784 219.972 86.3978 219.73 85.9624L217.982 86.9336ZM218.076 87.372C218.076 87.5243 218.024 87.7706 217.458 88.0755L218.406 89.8365C219.365 89.3201 220.076 88.5104 220.076 87.372H218.076ZM217.458 88.0755C216.9 88.3758 216.031 88.572 214.764 88.572V90.572C216.195 90.572 217.438 90.3575 218.406 89.8365L217.458 88.0755ZM214.764 88.572C212.855 88.572 211.402 88.1499 210.324 87.3905L209.172 89.0255C210.675 90.0847 212.566 90.572 214.764 90.572V88.572ZM210.333 87.3968C209.419 86.7382 208.856 85.5915 208.856 83.676H206.856C206.856 85.9845 207.554 87.8591 209.163 89.0192L210.333 87.3968ZM208.856 83.676V77.384H206.856V83.676H208.856ZM210.66 72.016V69.112H208.66V72.016H210.66ZM209.66 70.112H218.592V68.112H209.66V70.112ZM217.792 69.712C217.78 69.6959 217.79 69.7057 217.816 69.7621C217.84 69.8152 217.871 69.8927 217.907 70.0002L219.804 69.3678C219.707 69.0761 219.579 68.7612 219.392 68.512L217.792 69.712ZM217.907 70.0002C217.959 70.1569 217.988 70.3283 217.988 70.52H219.988C219.988 70.125 219.928 69.7391 219.804 69.3678L217.907 70.0002ZM217.988 70.52C217.988 70.8263 217.913 70.9278 217.888 70.9556L219.383 72.2844C219.828 71.7842 219.988 71.1524 219.988 70.52H217.988ZM217.888 70.9556C217.875 70.9707 217.844 71.016 217.668 71.016V73.016C218.313 73.016 218.927 72.7973 219.383 72.2844L217.888 70.9556ZM217.668 71.016H209.66V73.016H217.668V71.016ZM211.376 77.704H207.856V79.704H211.376V77.704ZM208.856 78.704V62.776H206.856V78.704H208.856ZM208.227 63.7045C208.287 63.6804 208.435 63.6359 208.712 63.5806L208.32 61.6194C208.009 61.6815 207.718 61.7543 207.484 61.8475L208.227 63.7045ZM208.779 63.5648C209.011 63.5013 209.26 63.468 209.528 63.468V61.468C209.092 61.468 208.665 61.5227 208.253 61.6352L208.779 63.5648ZM209.528 63.468C210.029 63.468 210.192 63.5798 210.223 63.6073L211.561 62.1207C211.005 61.6202 210.258 61.468 209.528 61.468V63.468ZM210.304 63.6727C210.307 63.6752 210.308 63.6767 210.31 63.6791C210.312 63.6819 210.319 63.6918 210.329 63.7143C210.348 63.7622 210.376 63.8653 210.376 64.052H212.376C212.376 63.3108 212.155 62.5459 211.48 62.0553L210.304 63.6727ZM210.376 64.052V78.704H212.376V64.052H210.376ZM241.182 84.512L240.291 84.0583L240.291 84.0583L241.182 84.512ZM227.102 88.252L226.595 89.114L226.603 89.1182L227.102 88.252ZM223.626 84.512L224.517 84.0583L224.517 84.0583L223.626 84.512ZM223.626 73.16L222.742 72.6936L222.739 72.6997L223.626 73.16ZM227.146 69.42L226.647 68.5538L226.639 68.5581L227.146 69.42ZM241.138 73.16L240.247 73.6137L240.252 73.6235L240.257 73.6331L241.138 73.16ZM227.718 73.116L226.95 72.4758L226.949 72.4774L227.718 73.116ZM227.674 84.6L226.897 85.2288L226.905 85.2386L227.674 84.6ZM237.09 84.6L236.314 83.9694L236.313 83.9713L237.09 84.6ZM237.09 73.116L236.306 73.7367L236.313 73.7457L236.321 73.7546L237.09 73.116ZM241.414 78.836C241.414 80.8801 241.028 82.6108 240.291 84.0583L242.073 84.9657C242.979 83.1865 243.414 81.1333 243.414 78.836H241.414ZM240.291 84.0583C239.552 85.5094 238.524 86.611 237.199 87.3901L238.213 89.1139C239.881 88.133 241.17 86.7412 242.073 84.9657L240.291 84.0583ZM237.199 87.3901C235.881 88.1656 234.302 88.572 232.426 88.572V90.572C234.599 90.572 236.54 90.0984 238.213 89.1139L237.199 87.3901ZM232.426 88.572C230.551 88.572 228.954 88.1658 227.602 87.3858L226.603 89.1182C228.301 90.0982 230.253 90.572 232.426 90.572V88.572ZM227.609 87.3901C226.285 86.611 225.256 85.5094 224.517 84.0583L222.735 84.9657C223.639 86.7412 224.928 88.133 226.595 89.1139L227.609 87.3901ZM224.517 84.0583C223.781 82.6108 223.394 80.8801 223.394 78.836H221.394C221.394 81.1333 221.829 83.1865 222.735 84.9657L224.517 84.0583ZM223.394 78.836C223.394 76.7595 223.782 75.0327 224.514 73.6203L222.739 72.6997C221.828 74.4553 221.394 76.5125 221.394 78.836H223.394ZM224.511 73.6264C225.279 72.1687 226.326 71.0628 227.653 70.2819L226.639 68.5581C224.975 69.5372 223.674 70.9246 222.742 72.6936L224.511 73.6264ZM227.646 70.2862C229 69.505 230.583 69.1 232.426 69.1V67.1C230.28 67.1 228.343 67.575 226.647 68.5538L227.646 70.2862ZM232.426 69.1C234.27 69.1 235.835 69.5051 237.155 70.2819L238.169 68.5581C236.498 67.5749 234.572 67.1 232.426 67.1V69.1ZM237.155 70.2819C238.48 71.061 239.508 72.1626 240.247 73.6137L242.029 72.7063C241.126 70.9308 239.837 69.539 238.169 68.5581L237.155 70.2819ZM240.257 73.6331C241.014 75.0426 241.414 76.7646 241.414 78.836H243.414C243.414 76.5074 242.964 74.4454 242.019 72.6869L240.257 73.6331ZM232.426 70.004C230.189 70.004 228.329 70.8217 226.95 72.4758L228.487 73.7562C229.455 72.5943 230.733 72.004 232.426 72.004V70.004ZM226.949 72.4774C225.61 74.0908 225.002 76.2518 225.002 78.836H227.002C227.002 76.5509 227.539 74.8985 228.488 73.7546L226.949 72.4774ZM225.002 78.836C225.002 81.4408 225.591 83.6139 226.897 85.2287L228.452 83.9713C227.528 82.8287 227.002 81.1592 227.002 78.836H225.002ZM226.905 85.2386C228.265 86.8776 230.148 87.668 232.426 87.668V85.668C230.656 85.668 229.372 85.0797 228.444 83.9614L226.905 85.2386ZM232.426 87.668C234.68 87.668 236.538 86.8735 237.868 85.2287L236.313 83.9713C235.413 85.0838 234.162 85.668 232.426 85.668V87.668ZM237.866 85.2306C239.198 83.5916 239.806 81.4217 239.806 78.836H237.806C237.806 81.1196 237.271 82.7924 236.314 83.9694L237.866 85.2306ZM239.806 78.836C239.806 76.2518 239.199 74.0908 237.86 72.4774L236.321 73.7546C237.27 74.8985 237.806 76.5509 237.806 78.836H239.806ZM237.874 72.4953C236.547 70.819 234.688 70.004 232.426 70.004V72.004C234.154 72.004 235.404 72.597 236.306 73.7367L237.874 72.4953ZM251.379 72.456L250.887 71.5854L250.379 71.8725V72.456H251.379ZM251.379 79.408V80.408H252.379V79.408H251.379ZM247.859 79.408H246.859V80.408H247.859V79.408ZM248.211 71.136L247.369 70.5952L247.364 70.6035L247.359 70.6119L248.211 71.136ZM249.487 69.948L250.032 70.7864L250.034 70.785L249.487 69.948ZM252.611 68.672L252.868 69.6382L252.878 69.6356L252.888 69.6327L252.611 68.672ZM260.399 70.696L261.335 71.0471L261.341 71.0298L261.347 71.0122L260.399 70.696ZM260.047 71.312L259.85 72.2926L260.434 72.4093L260.815 71.9522L260.047 71.312ZM253.931 71.488L254.18 72.4565L254.193 72.4532L254.205 72.4495L253.931 71.488ZM247.859 77.384L248.007 76.3951L246.859 76.2228V77.384H247.859ZM251.379 77.912H252.379V77.0508L251.527 76.9231L251.379 77.912ZM251.379 88.912L251.75 89.8405L252.379 89.589V88.912H251.379ZM250.719 89.088L250.522 88.1074L250.476 88.1166L250.431 88.1302L250.719 89.088ZM248.343 88.868L247.709 89.642L247.731 89.66L247.754 89.6767L248.343 88.868ZM250.379 72.456V79.408H252.379V72.456H250.379ZM251.379 78.408H247.859V80.408H251.379V78.408ZM248.859 79.408V72.72H246.859V79.408H248.859ZM248.859 72.72C248.859 72.1432 248.962 71.8232 249.062 71.6601L247.359 70.6119C246.99 71.2115 246.859 71.9474 246.859 72.72H248.859ZM249.052 71.6768C249.214 71.4251 249.516 71.1216 250.032 70.7864L248.942 69.1096C248.284 69.5371 247.736 70.0256 247.369 70.5952L249.052 71.6768ZM250.034 70.785C250.675 70.3658 251.605 69.9751 252.868 69.6382L252.353 67.7058C250.976 68.0729 249.824 68.5328 248.939 69.111L250.034 70.785ZM252.888 69.6327C254.104 69.2815 255.475 69.1 257.011 69.1V67.1C255.319 67.1 253.757 67.2998 252.333 67.7113L252.888 69.6327ZM257.011 69.1C258.133 69.1 258.826 69.2456 259.203 69.4344C259.378 69.5218 259.449 69.6004 259.479 69.6447C259.504 69.6827 259.531 69.7416 259.531 69.86H261.531C261.531 69.3917 261.411 68.9373 261.143 68.5353C260.879 68.1396 260.51 67.8516 260.098 67.6456C259.302 67.2478 258.235 67.1 257.011 67.1V69.1ZM259.531 69.86C259.531 70.0517 259.502 70.2231 259.45 70.3798L261.347 71.0122C261.471 70.6409 261.531 70.255 261.531 69.86H259.531ZM259.462 70.3449C259.41 70.4843 259.347 70.5898 259.278 70.6718L260.815 71.9522C261.04 71.6822 261.211 71.377 261.335 71.0471L259.462 70.3449ZM260.243 70.3314C259.916 70.2661 259.508 70.2039 259.027 70.1437L258.779 72.1283C259.236 72.1854 259.591 72.2406 259.85 72.2926L260.243 70.3314ZM259.027 70.1437C258.516 70.08 258.006 70.048 257.495 70.048V72.048C257.922 72.048 258.35 72.0747 258.779 72.1283L259.027 70.1437ZM257.495 70.048C256.076 70.048 254.792 70.2019 253.656 70.5265L254.205 72.4495C255.123 72.1874 256.215 72.048 257.495 72.048V70.048ZM253.682 70.5195C252.599 70.7979 251.66 71.1484 250.887 71.5854L251.871 73.3266C252.447 73.0009 253.209 72.7061 254.18 72.4565L253.682 70.5195ZM247.71 78.3729L251.23 78.9009L251.527 76.9231L248.007 76.3951L247.71 78.3729ZM250.379 77.912V88.912H252.379V77.912H250.379ZM251.007 87.9835C250.947 88.0076 250.799 88.0521 250.522 88.1074L250.915 90.0686C251.225 90.0065 251.517 89.9337 251.75 89.8405L251.007 87.9835ZM250.431 88.1302C250.244 88.1864 250.019 88.22 249.751 88.22V90.22C250.186 90.22 250.607 90.1656 251.006 90.0458L250.431 88.1302ZM249.751 88.22C249.238 88.22 249.012 88.1185 248.931 88.0593L247.754 89.6767C248.318 90.0868 249.031 90.22 249.751 90.22V88.22ZM248.976 88.094C248.958 88.0791 248.859 88.0012 248.859 87.636H246.859C246.859 88.3855 247.082 89.1289 247.709 89.642L248.976 88.094ZM248.859 87.636V77.384H246.859V87.636H248.859ZM265.506 81.08L264.508 81.1434L264.576 82.2198L265.644 82.0704L265.506 81.08ZM265.33 78.308L265.195 77.3171L264.273 77.4423L264.332 78.3714L265.33 78.308ZM278.618 76.504L278.752 77.4949L279.683 77.3685L279.615 76.4315L278.618 76.504ZM276.946 72.544L276.219 73.2307L276.228 73.2408L276.946 72.544ZM268.278 72.94L267.538 72.2665L267.538 72.2673L268.278 72.94ZM266.518 79.496H265.518V79.5397L265.521 79.5832L266.518 79.496ZM268.806 84.864L268.123 85.5951L268.132 85.6029L268.14 85.6105L268.806 84.864ZM277.65 86.052L277.269 85.1273L277.65 86.052ZM280.026 84.732L280.563 83.8883L279.959 83.5045L279.401 83.9511L280.026 84.732ZM280.774 85.48L279.916 85.9945L279.947 86.0463L279.984 86.0939L280.774 85.48ZM280.114 87.988L280.72 88.7835L280.725 88.7793L280.114 87.988ZM277.606 89.132L277.338 88.1685L277.331 88.1705L277.606 89.132ZM268.234 88.34L267.786 89.2344L267.793 89.2376L268.234 88.34ZM264.406 84.688L263.524 85.1602L263.529 85.1697L263.535 85.179L264.406 84.688ZM263.79 74.26L262.854 73.9066L262.85 73.9183L263.79 74.26ZM265.814 70.916L265.095 70.2206L265.089 70.2267L265.083 70.2328L265.814 70.916ZM268.938 68.848L269.301 69.7796L269.311 69.7758L269.321 69.7717L268.938 68.848ZM277.562 69.244L277.07 70.1146L277.078 70.119L277.562 69.244ZM280.774 72.456L279.899 72.9401L279.905 72.9512L279.911 72.9622L280.774 72.456ZM281.522 78.528L282.191 79.2713L282.21 79.2537L282.229 79.2351L281.522 78.528ZM280.29 79.012L280.179 78.0181L280.165 78.0197L280.151 78.0216L280.29 79.012ZM266.504 81.0166L266.328 78.2446L264.332 78.3714L264.508 81.1434L266.504 81.0166ZM265.464 79.2989L278.752 77.4949L278.483 75.5131L265.195 77.3171L265.464 79.2989ZM279.615 76.4315C279.483 74.616 278.845 73.0645 277.663 71.8472L276.228 73.2408C277.041 74.0768 277.518 75.1653 277.62 76.5765L279.615 76.4315ZM277.673 71.8574C276.447 70.5599 274.782 69.96 272.81 69.96V71.96C274.357 71.96 275.449 72.4161 276.219 73.2306L277.673 71.8574ZM272.81 69.96C270.716 69.96 268.935 70.7342 267.538 72.2665L269.017 73.6135C270.026 72.5058 271.266 71.96 272.81 71.96V69.96ZM267.538 72.2673C266.141 73.8039 265.518 75.9432 265.518 78.528H267.518C267.518 76.2435 268.068 74.6574 269.018 73.6127L267.538 72.2673ZM265.518 78.528V79.496H267.518V78.528H265.518ZM265.521 79.5832C265.742 82.0991 266.573 84.1485 268.123 85.5951L269.488 84.1329C268.398 83.1155 267.704 81.5863 267.514 79.4088L265.521 79.5832ZM268.14 85.6105C269.72 87.0183 271.814 87.668 274.306 87.668V85.668C272.162 85.668 270.59 85.115 269.471 84.1175L268.14 85.6105ZM274.306 87.668C275.65 87.668 276.896 87.4436 278.03 86.9767L277.269 85.1273C276.408 85.4817 275.426 85.668 274.306 85.668V87.668ZM278.03 86.9767C279.081 86.5442 279.965 86.0611 280.65 85.5129L279.401 83.9511C278.913 84.3416 278.213 84.7385 277.269 85.1273L278.03 86.9767ZM279.489 85.5757C279.696 85.7076 279.829 85.8493 279.916 85.9945L281.631 84.9655C281.366 84.524 281.001 84.1671 280.563 83.8883L279.489 85.5757ZM279.984 86.0939C280.046 86.1728 280.082 86.2619 280.082 86.404H282.082C282.082 85.8421 281.912 85.3152 281.563 84.8661L279.984 86.0939ZM280.082 86.404C280.082 86.5278 280.021 86.796 279.502 87.1967L280.725 88.7793C281.497 88.1826 282.082 87.3948 282.082 86.404H280.082ZM279.508 87.1926C279.025 87.56 278.319 87.8961 277.338 88.1685L277.873 90.0955C279.005 89.7812 279.97 89.3547 280.72 88.7834L279.508 87.1926ZM277.331 88.1705C276.41 88.4336 275.346 88.572 274.13 88.572V90.572C275.495 90.572 276.748 90.417 277.88 90.0935L277.331 88.1705ZM274.13 88.572C271.992 88.572 270.183 88.1836 268.675 87.4424L267.793 89.2376C269.628 90.1391 271.75 90.572 274.13 90.572V88.572ZM268.681 87.4456C267.218 86.7142 266.089 85.6381 265.277 84.197L263.535 85.179C264.541 86.9645 265.964 88.3231 267.786 89.2344L268.681 87.4456ZM265.287 84.2158C264.503 82.7512 264.086 80.9277 264.086 78.704H262.086C262.086 81.1736 262.549 83.3394 263.524 85.1602L265.287 84.2158ZM264.086 78.704C264.086 77.124 264.308 75.762 264.729 74.6017L262.85 73.9183C262.333 75.3394 262.086 76.94 262.086 78.704H264.086ZM264.725 74.6134C265.184 73.3995 265.794 72.4012 266.544 71.5992L265.083 70.2328C264.132 71.2495 263.393 72.4805 262.854 73.9066L264.725 74.6134ZM266.532 71.6114C267.31 70.8075 268.23 70.1977 269.301 69.7796L268.574 67.9164C267.24 68.4369 266.077 69.2058 265.095 70.2206L266.532 71.6114ZM269.321 69.7717C270.392 69.3274 271.566 69.1 272.854 69.1V67.1C271.325 67.1 269.888 67.3713 268.555 67.9243L269.321 69.7717ZM272.854 69.1C274.498 69.1 275.892 69.4491 277.07 70.1146L278.054 68.3734C276.532 67.5136 274.789 67.1 272.854 67.1V69.1ZM277.078 70.119C278.292 70.7907 279.227 71.7259 279.899 72.9401L281.649 71.9719C280.795 70.4288 279.589 69.2226 278.046 68.369L277.078 70.119ZM279.911 72.9622C280.602 74.1396 280.962 75.5153 280.962 77.12H282.962C282.962 75.2047 282.529 73.4711 281.636 71.9498L279.911 72.9622ZM280.962 77.12C280.962 77.6436 280.839 77.7967 280.815 77.8209L282.229 79.2351C282.791 78.6726 282.962 77.8871 282.962 77.12H280.962ZM280.853 77.7847C280.76 77.8677 280.57 77.9747 280.179 78.0181L280.4 80.0059C281.065 79.932 281.696 79.7163 282.191 79.2713L280.853 77.7847ZM280.151 78.0216L265.367 80.0896L265.644 82.0704L280.428 80.0024L280.151 78.0216Z" fill="black" fill-opacity="0.2"/>
<defs>
<linearGradient id="paint0_linear_601_20" x1="93.0953" y1="0" x2="93.0953" y2="128.295" gradientUnits="userSpaceOnUse">
<stop stop-color="#E17171"/>
<stop offset="1" stop-color="#870101"/>
</linearGradient>
</defs>
</svg>
